<svg width="56" height="29" viewBox="0 0 56 29" fill="none" xmlns="http://www.w3.org/2000/svg">
<path d="M40.042 0.5C48.4792 0.5 55.245 6.76855 55.2451 14.4131C55.2451 22.0577 48.4792 28.3262 40.042 28.3262C31.6049 28.326 24.8398 22.0576 24.8398 14.4131C24.8399 6.76863 31.6049 0.50014 40.042 0.5Z" stroke="#E8F2F9"/>
<path d="M42.9522 14.4115C43.1475 14.2163 43.1475 13.8997 42.9522 13.7044L39.7703 10.5224C39.575 10.3272 39.2584 10.3272 39.0632 10.5224C38.8679 10.7177 38.8679 11.0343 39.0632 11.2296L41.8916 14.058L39.0632 16.8864C38.8679 17.0817 38.8679 17.3983 39.0632 17.5935C39.2584 17.7888 39.575 17.7888 39.7703 17.5935L42.9522 14.4115ZM0 14.058L4.66243e-08 14.558L42.5987 14.558L42.5987 14.058L42.5987 13.558L-4.66243e-08 13.558L0 14.058Z" fill="#04010C"/>
</svg>
